<svg version="1.1" id="Layer_1" xmlns="http://www.w3.org/2000/svg" xmlns:xlink="http://www.w3.org/1999/xlink" x="0px" y="0px"
	 width="100%" viewBox="0 0 500 500" enable-background="new 0 0 500 500" xml:space="preserve">
<path fill="#000000" opacity="1.000000" stroke="none" 
	d="
M218.000000,501.000000 
	C145.333344,501.000000 73.166702,501.000000 1.000039,501.000000 
	C1.000026,334.333405 1.000026,167.666779 1.000013,1.000128 
	C167.666565,1.000085 334.333130,1.000085 500.999756,1.000043 
	C500.999847,167.666534 500.999847,334.333069 500.999939,500.999817 
	C406.833344,501.000000 312.666656,501.000000 218.000000,501.000000 
M308.529663,172.028046 
	C300.372559,148.702591 283.150604,136.437164 258.312042,136.374435 
	C237.659058,136.322281 217.005844,136.358536 196.352737,136.374512 
	C194.940933,136.375610 193.529266,136.534897 191.070450,136.684189 
	C196.964157,142.536377 202.277390,147.540176 207.246765,152.864868 
	C209.618851,155.406586 212.081345,156.270218 215.512482,156.262650 
	C231.826416,156.226639 248.183731,155.792236 264.442993,156.814285 
	C279.896912,157.785736 291.635590,172.523300 290.745972,187.902344 
	C289.835327,203.644669 277.078033,216.130096 261.525787,216.456833 
	C258.071381,216.529419 254.614136,216.467499 251.206482,216.467499 
	C251.206482,226.707840 251.206482,236.386124 251.206482,246.657089 
	C254.893616,244.578018 258.030365,242.777206 261.197693,241.031754 
	C264.827942,239.031128 268.274261,236.120651 272.165527,235.264313 
	C295.260406,230.181808 317.039001,205.646027 308.529663,172.028046 
M216.526703,266.967133 
	C220.131653,264.900970 223.658218,262.678314 227.367493,260.820435 
	C230.102921,259.450348 230.965729,257.637238 230.936874,254.565872 
	C230.772675,237.085037 230.857300,219.601852 230.857330,202.119476 
	C230.857330,200.348969 230.857346,198.578461 230.857346,196.552902 
	C240.343552,196.552902 249.158508,196.640274 257.969666,196.496201 
	C260.406555,196.456375 263.078644,196.237656 265.210327,195.206726 
	C269.305267,193.226395 271.364899,189.642197 270.533478,184.961670 
	C269.597290,179.691040 265.802246,176.551361 259.799377,176.502686 
	C243.983383,176.374435 228.165497,176.472961 212.348465,176.510681 
	C211.918625,176.511703 211.489609,176.849091 211.154358,176.990036 
	C211.154358,207.997238 211.154358,238.836746 211.154358,269.996063 
	C212.992859,268.945160 214.432816,268.122070 216.526703,266.967133 
M186.809250,319.018341 
	C188.221893,318.936829 189.634521,318.855316 190.897614,318.782440 
	C190.897614,309.451416 190.897614,300.524506 190.897614,291.652832 
	C188.549118,291.652832 186.484650,291.652832 183.900085,291.652832 
	C183.900085,295.623993 183.900085,299.251068 183.900085,302.878143 
	C182.081009,300.558441 180.773712,298.249207 180.089523,295.768097 
	C178.814636,291.145050 176.046890,290.354919 171.932159,291.830231 
	C171.932159,300.914276 171.932159,309.829742 171.932159,318.735474 
	C174.243286,318.735474 176.324478,318.735474 178.932617,318.735474 
	C178.932617,314.992218 178.932617,311.505157 178.932617,308.018097 
	C180.527451,309.504456 181.136597,311.160675 181.997238,312.673798 
	C183.229797,314.840912 184.646072,316.903534 186.809250,319.018341 
M310.148682,293.171234 
	C307.980591,292.361664 305.812531,291.552063 303.307251,290.616577 
	C303.307251,300.880798 303.307251,309.921356 303.307251,318.810303 
	C305.617981,318.810303 307.570251,318.810303 310.121277,318.810303 
	C310.121277,314.868866 310.121277,311.101410 310.121277,307.150299 
	C314.648376,311.005951 312.048828,321.301849 322.223938,318.686798 
	C322.223938,309.614471 322.223938,300.681793 322.223938,291.628693 
	C319.903717,291.628693 317.854767,291.628693 315.201111,291.628693 
	C315.201111,295.564789 315.201111,299.189789 315.201111,302.814819 
	C314.903687,302.838074 314.606262,302.861328 314.308868,302.884613 
	C313.033691,299.882599 311.758514,296.880615 310.148682,293.171234 
M250.867493,317.735535 
	C255.421036,318.082001 259.987579,318.749573 264.519684,318.566040 
	C265.769684,318.515411 267.881592,315.971588 267.949402,314.496033 
	C268.298645,306.895386 268.111389,299.270081 268.111389,291.578705 
	C265.510498,291.578705 263.272461,291.578705 260.642792,291.578705 
	C260.642792,297.813080 260.755981,303.774048 260.553497,309.724304 
	C260.509583,311.013947 259.332275,312.264984 258.677002,313.533813 
	C258.074066,312.256989 256.989838,310.994843 256.950378,309.700836 
	C256.765503,303.638306 256.868225,297.566956 256.868225,291.654907 
	C253.831253,291.654907 251.589401,291.654907 249.089737,291.654907 
	C249.089737,296.149017 248.936646,300.294189 249.132202,304.422821 
	C249.333313,308.668304 249.874619,312.897705 250.867493,317.735535 
M339.039856,306.407867 
	C339.467621,303.139465 339.895386,299.871094 340.323120,296.602692 
	C341.208893,298.204773 342.090881,299.808990 342.987915,301.404724 
	C343.056213,301.526245 343.230865,301.587921 343.467804,301.757294 
	C345.485474,301.757294 347.614258,301.757294 349.723236,301.757294 
	C350.966339,292.854370 349.608734,291.280731 340.802917,291.294952 
	C339.474274,291.297089 338.139862,291.303802 336.818359,291.422455 
	C333.282898,291.739868 331.393127,293.660736 331.371155,297.264557 
	C331.346802,301.255615 331.349731,305.246857 331.350525,309.238037 
	C331.352295,318.415314 331.991791,319.039398 341.339294,319.023132 
	C349.750519,319.008453 351.225098,317.205322 349.591583,309.155060 
	C347.285217,309.155060 345.019867,309.155060 343.905914,309.155060 
	C342.439667,311.244171 341.480896,312.610229 340.522095,313.976257 
	C340.028015,312.437378 339.479218,310.912994 339.066864,309.352509 
	C338.902557,308.730743 339.039856,308.029236 339.039856,306.407867 
M145.980591,294.734955 
	C144.282196,293.621918 142.665741,291.739746 140.869171,291.548340 
	C136.481857,291.080872 132.011185,291.395844 127.387520,291.395844 
	C127.387520,300.805206 127.387520,309.814026 127.387520,318.784790 
	C129.952164,318.784790 132.213806,318.784790 134.889145,318.784790 
	C134.889145,315.825531 134.889145,313.092346 134.889145,310.394562 
	C148.667953,309.646271 145.953094,308.162018 146.260223,297.513580 
	C146.279236,296.853821 146.177490,296.190582 145.980591,294.734955 
M283.666687,291.296112 
	C281.859039,291.296112 280.051361,291.296112 277.975952,291.296112 
	C277.975952,300.676117 277.975952,309.733551 277.975952,318.746887 
	C283.678833,318.746887 289.117035,318.746887 294.615356,318.746887 
	C294.615356,317.017914 294.615356,315.561829 294.615356,313.858948 
	C291.545807,313.679718 288.623444,313.509094 285.476044,313.325348 
	C285.476044,311.458679 285.476044,309.908661 285.476044,308.145874 
	C288.028839,307.982788 290.452118,307.827942 293.091980,307.659271 
	C292.967285,305.738373 292.864349,304.152161 292.755005,302.467468 
	C290.138641,302.312775 287.864624,302.178284 285.550537,302.041473 
	C285.550537,300.215637 285.550537,298.705414 285.550537,296.932373 
	C288.495117,296.932373 291.117462,296.932373 293.901550,296.932373 
	C293.901550,294.916321 293.901550,293.180939 293.901550,291.296143 
	C290.579529,291.296143 287.589966,291.296143 283.666687,291.296112 
M370.377991,319.025970 
	C372.172913,319.025970 373.967834,319.025970 376.043182,319.025970 
	C375.913696,316.968201 375.815460,315.407074 375.692291,313.449280 
	C372.590027,313.449280 369.829224,313.449280 366.848999,313.449280 
	C366.848999,311.457489 366.848999,309.890015 366.848999,307.926819 
	C369.320984,307.926819 371.575989,307.926819 373.855347,307.926819 
	C373.855347,305.810516 373.855347,304.096436 373.855347,302.115265 
	C371.339752,302.115265 369.217072,302.115265 366.896606,302.115265 
	C366.896606,300.306427 366.896606,298.772186 366.896606,296.739502 
	C369.907776,296.739502 372.648743,296.739502 375.723358,296.739502 
	C375.554718,294.644043 375.428619,293.076874 375.313904,291.651550 
	C369.583527,291.651550 364.355896,291.651550 359.222565,291.651550 
	C359.222565,300.941010 359.222565,309.860565 359.222565,319.025970 
	C362.805298,319.025970 366.111542,319.025970 370.377991,319.025970 
M214.316483,296.954315 
	C219.117447,297.007538 216.217972,293.625824 217.036438,291.664795 
	C211.273621,291.664795 205.908737,291.664795 200.587585,291.664795 
	C200.587585,300.985352 200.587585,309.897400 200.587585,318.815643 
	C203.166122,318.815643 205.430679,318.815643 208.071564,318.815643 
	C208.071564,315.329590 208.071564,312.060822 208.071564,308.806244 
	C210.874908,308.622742 213.292740,308.464478 215.998734,308.287354 
	C215.850098,306.441803 215.737442,305.043152 215.600281,303.340240 
	C212.979904,303.340240 210.704697,303.340240 208.265930,303.340240 
	C208.265930,301.092255 208.265930,299.181305 208.265930,296.955261 
	C210.120026,296.955261 211.754059,296.955261 214.316483,296.954315 
M229.692123,319.030365 
	C233.630081,319.030365 237.568054,319.030365 241.728378,319.030365 
	C241.623428,316.940887 241.550812,315.495392 241.465790,313.802551 
	C238.614273,313.658447 235.998917,313.526306 232.887177,313.369049 
	C232.887177,306.026154 232.887177,298.784668 232.887177,291.623108 
	C230.143784,291.623108 227.910889,291.623108 225.299713,291.623108 
	C225.299713,300.089813 225.397903,308.218597 225.246826,316.342743 
	C225.193466,319.212555 226.825256,319.126984 229.692123,319.030365 
M162.197800,293.313141 
	C159.997971,292.400269 157.798141,291.487427 154.978180,290.317230 
	C154.978180,300.720490 154.978180,309.740479 154.978180,318.764740 
	C157.485214,318.764740 159.735825,318.764740 162.203125,318.764740 
	C162.203125,310.411011 162.203125,302.297882 162.197800,293.313141 
z"/>
<path fill="#D5D5D5" opacity="1.000000" stroke="none" 
	d="
M308.664795,172.411545 
	C317.039001,205.646027 295.260406,230.181808 272.165527,235.264313 
	C268.274261,236.120651 264.827942,239.031128 261.197693,241.031754 
	C258.030365,242.777206 254.893616,244.578018 251.206482,246.657089 
	C251.206482,236.386124 251.206482,226.707840 251.206482,216.467499 
	C254.614136,216.467499 258.071381,216.529419 261.525787,216.456833 
	C277.078033,216.130096 289.835327,203.644669 290.745972,187.902344 
	C291.635590,172.523300 279.896912,157.785736 264.442993,156.814285 
	C248.183731,155.792236 231.826416,156.226639 215.512482,156.262650 
	C212.081345,156.270218 209.618851,155.406586 207.246765,152.864868 
	C202.277390,147.540176 196.964157,142.536377 191.070450,136.684189 
	C193.529266,136.534897 194.940933,136.375610 196.352737,136.374512 
	C217.005844,136.358536 237.659058,136.322281 258.312042,136.374435 
	C283.150604,136.437164 300.372559,148.702591 308.664795,172.411545 
z"/>
<path fill="#C669E0" opacity="1.000000" stroke="none" 
	d="
M216.199738,267.133057 
	C214.432816,268.122070 212.992859,268.945160 211.154358,269.996063 
	C211.154358,238.836746 211.154358,207.997238 211.154358,176.990036 
	C211.489609,176.849091 211.918625,176.511703 212.348465,176.510681 
	C228.165497,176.472961 243.983383,176.374435 259.799377,176.502686 
	C265.802246,176.551361 269.597290,179.691040 270.533478,184.961670 
	C271.364899,189.642197 269.305267,193.226395 265.210327,195.206726 
	C263.078644,196.237656 260.406555,196.456375 257.969666,196.496201 
	C249.158508,196.640274 240.343552,196.552902 230.857346,196.552902 
	C230.857346,198.578461 230.857330,200.348969 230.857330,202.119476 
	C230.857300,219.601852 230.772675,237.085037 230.936874,254.565872 
	C230.965729,257.637238 230.102921,259.450348 227.367493,260.820435 
	C223.658218,262.678314 220.131653,264.900970 216.199738,267.133057 
z"/>
<path fill="#F5F5F5" opacity="1.000000" stroke="none" 
	d="
M186.396576,319.014557 
	C184.646072,316.903534 183.229797,314.840912 181.997238,312.673798 
	C181.136597,311.160675 180.527451,309.504456 178.932617,308.018097 
	C178.932617,311.505157 178.932617,314.992218 178.932617,318.735474 
	C176.324478,318.735474 174.243286,318.735474 171.932159,318.735474 
	C171.932159,309.829742 171.932159,300.914276 171.932159,291.830231 
	C176.046890,290.354919 178.814636,291.145050 180.089523,295.768097 
	C180.773712,298.249207 182.081009,300.558441 183.900085,302.878143 
	C183.900085,299.251068 183.900085,295.623993 183.900085,291.652832 
	C186.484650,291.652832 188.549118,291.652832 190.897614,291.652832 
	C190.897614,300.524506 190.897614,309.451416 190.897614,318.782440 
	C189.634521,318.855316 188.221893,318.936829 186.396576,319.014557 
z"/>
<path fill="#F5F5F5" opacity="1.000000" stroke="none" 
	d="
M310.316040,293.524933 
	C311.758514,296.880615 313.033691,299.882599 314.308868,302.884613 
	C314.606262,302.861328 314.903687,302.838074 315.201111,302.814819 
	C315.201111,299.189789 315.201111,295.564789 315.201111,291.628693 
	C317.854767,291.628693 319.903717,291.628693 322.223938,291.628693 
	C322.223938,300.681793 322.223938,309.614471 322.223938,318.686798 
	C312.048828,321.301849 314.648376,311.005951 310.121277,307.150299 
	C310.121277,311.101410 310.121277,314.868866 310.121277,318.810303 
	C307.570251,318.810303 305.617981,318.810303 303.307251,318.810303 
	C303.307251,309.921356 303.307251,300.880798 303.307251,290.616577 
	C305.812531,291.552063 307.980591,292.361664 310.316040,293.524933 
z"/>
<path fill="#F5F5F5" opacity="1.000000" stroke="none" 
	d="
M250.567291,317.434814 
	C249.874619,312.897705 249.333313,308.668304 249.132202,304.422821 
	C248.936646,300.294189 249.089737,296.149017 249.089737,291.654907 
	C251.589401,291.654907 253.831253,291.654907 256.868225,291.654907 
	C256.868225,297.566956 256.765503,303.638306 256.950378,309.700836 
	C256.989838,310.994843 258.074066,312.256989 258.677002,313.533813 
	C259.332275,312.264984 260.509583,311.013947 260.553497,309.724304 
	C260.755981,303.774048 260.642792,297.813080 260.642792,291.578705 
	C263.272461,291.578705 265.510498,291.578705 268.111389,291.578705 
	C268.111389,299.270081 268.298645,306.895386 267.949402,314.496033 
	C267.881592,315.971588 265.769684,318.515411 264.519684,318.566040 
	C259.987579,318.749573 255.421036,318.082001 250.567291,317.434814 
z"/>
<path fill="#F3F3F3" opacity="1.000000" stroke="none" 
	d="
M339.039856,306.885956 
	C339.039856,308.029236 338.902557,308.730743 339.066864,309.352509 
	C339.479218,310.912994 340.028015,312.437378 340.522095,313.976257 
	C341.480896,312.610229 342.439667,311.244171 343.905914,309.155060 
	C345.019867,309.155060 347.285217,309.155060 349.591583,309.155060 
	C351.225098,317.205322 349.750519,319.008453 341.339294,319.023132 
	C331.991791,319.039398 331.352295,318.415314 331.350525,309.238037 
	C331.349731,305.246857 331.346802,301.255615 331.371155,297.264557 
	C331.393127,293.660736 333.282898,291.739868 336.818359,291.422455 
	C338.139862,291.303802 339.474274,291.297089 340.802917,291.294952 
	C349.608734,291.280731 350.966339,292.854370 349.723236,301.757294 
	C347.614258,301.757294 345.485474,301.757294 343.467804,301.757294 
	C343.230865,301.587921 343.056213,301.526245 342.987915,301.404724 
	C342.090881,299.808990 341.208893,298.204773 340.323120,296.602692 
	C339.895386,299.871094 339.467621,303.139465 339.039856,306.885956 
z"/>
<path fill="#F4F4F4" opacity="1.000000" stroke="none" 
	d="
M146.056259,295.131958 
	C146.177490,296.190582 146.279236,296.853821 146.260223,297.513580 
	C145.953094,308.162018 148.667953,309.646271 134.889145,310.394562 
	C134.889145,313.092346 134.889145,315.825531 134.889145,318.784790 
	C132.213806,318.784790 129.952164,318.784790 127.387520,318.784790 
	C127.387520,309.814026 127.387520,300.805206 127.387520,291.395844 
	C132.011185,291.395844 136.481857,291.080872 140.869171,291.548340 
	C142.665741,291.739746 144.282196,293.621918 146.056259,295.131958 
M138.096603,297.122620 
	C131.196457,297.133881 136.576157,302.020721 134.242447,304.740082 
	C140.975784,304.506317 138.067734,300.203674 138.096603,297.122620 
z"/>
<path fill="#F5F5F5" opacity="1.000000" stroke="none" 
	d="
M284.133545,291.296143 
	C287.589966,291.296143 290.579529,291.296143 293.901550,291.296143 
	C293.901550,293.180939 293.901550,294.916321 293.901550,296.932373 
	C291.117462,296.932373 288.495117,296.932373 285.550537,296.932373 
	C285.550537,298.705414 285.550537,300.215637 285.550537,302.041473 
	C287.864624,302.178284 290.138641,302.312775 292.755005,302.467468 
	C292.864349,304.152161 292.967285,305.738373 293.091980,307.659271 
	C290.452118,307.827942 288.028839,307.982788 285.476044,308.145874 
	C285.476044,309.908661 285.476044,311.458679 285.476044,313.325348 
	C288.623444,313.509094 291.545807,313.679718 294.615356,313.858948 
	C294.615356,315.561829 294.615356,317.017914 294.615356,318.746887 
	C289.117035,318.746887 283.678833,318.746887 277.975952,318.746887 
	C277.975952,309.733551 277.975952,300.676117 277.975952,291.296112 
	C280.051361,291.296112 281.859039,291.296112 284.133545,291.296143 
z"/>
<path fill="#F2F2F2" opacity="1.000000" stroke="none" 
	d="
M369.897888,319.025970 
	C366.111542,319.025970 362.805298,319.025970 359.222565,319.025970 
	C359.222565,309.860565 359.222565,300.941010 359.222565,291.651550 
	C364.355896,291.651550 369.583527,291.651550 375.313904,291.651550 
	C375.428619,293.076874 375.554718,294.644043 375.723358,296.739502 
	C372.648743,296.739502 369.907776,296.739502 366.896606,296.739502 
	C366.896606,298.772186 366.896606,300.306427 366.896606,302.115265 
	C369.217072,302.115265 371.339752,302.115265 373.855347,302.115265 
	C373.855347,304.096436 373.855347,305.810516 373.855347,307.926819 
	C371.575989,307.926819 369.320984,307.926819 366.848999,307.926819 
	C366.848999,309.890015 366.848999,311.457489 366.848999,313.449280 
	C369.829224,313.449280 372.590027,313.449280 375.692291,313.449280 
	C375.815460,315.407074 375.913696,316.968201 376.043182,319.025970 
	C373.967834,319.025970 372.172913,319.025970 369.897888,319.025970 
z"/>
<path fill="#EAEAEA" opacity="1.000000" stroke="none" 
	d="
M213.852295,296.954773 
	C211.754059,296.955261 210.120026,296.955261 208.265930,296.955261 
	C208.265930,299.181305 208.265930,301.092255 208.265930,303.340240 
	C210.704697,303.340240 212.979904,303.340240 215.600281,303.340240 
	C215.737442,305.043152 215.850098,306.441803 215.998734,308.287354 
	C213.292740,308.464478 210.874908,308.622742 208.071564,308.806244 
	C208.071564,312.060822 208.071564,315.329590 208.071564,318.815643 
	C205.430679,318.815643 203.166122,318.815643 200.587585,318.815643 
	C200.587585,309.897400 200.587585,300.985352 200.587585,291.664795 
	C205.908737,291.664795 211.273621,291.664795 217.036438,291.664795 
	C216.217972,293.625824 219.117447,297.007538 213.852295,296.954773 
z"/>
<path fill="#EFEFEF" opacity="1.000000" stroke="none" 
	d="
M229.219910,319.030334 
	C226.825256,319.126984 225.193466,319.212555 225.246826,316.342743 
	C225.397903,308.218597 225.299713,300.089813 225.299713,291.623108 
	C227.910889,291.623108 230.143784,291.623108 232.887177,291.623108 
	C232.887177,298.784668 232.887177,306.026154 232.887177,313.369049 
	C235.998917,313.526306 238.614273,313.658447 241.465790,313.802551 
	C241.550812,315.495392 241.623428,316.940887 241.728378,319.030365 
	C237.568054,319.030365 233.630081,319.030365 229.219910,319.030334 
z"/>
<path fill="#FBFBFB" opacity="1.000000" stroke="none" 
	d="
M162.200470,293.748962 
	C162.203125,302.297882 162.203125,310.411011 162.203125,318.764740 
	C159.735825,318.764740 157.485214,318.764740 154.978180,318.764740 
	C154.978180,309.740479 154.978180,300.720490 154.978180,290.317230 
	C157.798141,291.487427 159.997971,292.400269 162.200470,293.748962 
z"/>
<path fill="#1D1D1D" opacity="1.000000" stroke="none" 
	d="
M138.395233,297.446350 
	C138.067734,300.203674 140.975784,304.506317 134.242447,304.740082 
	C136.576157,302.020721 131.196457,297.133881 138.395233,297.446350 
z"/>
</svg>